<svg width="185" height="45" viewBox="0 0 185 45" fill="none" xmlns="http://www.w3.org/2000/svg">
<path d="M0 1.09033H32.0683V9.38904H9.27502V18.0257H29.3271V26.3244H9.27502V35.299H32.3312V43.6353H0V1.09033Z" fill="white"/>
<path d="M41.0429 1.09033H60.4566C65.8639 1.09033 70.0321 2.59236 72.8484 5.40866C75.2141 7.77436 76.4908 11.1164 76.4908 15.2469C76.4908 22.1187 72.7733 26.3995 67.366 28.4272L77.73 43.5977H66.8027L57.5652 30.0044H50.3555V43.5977H41.0054V1.09033H41.0429ZM59.8934 21.7432C64.437 21.7432 67.0656 19.3024 67.0656 15.6225C67.0656 11.6045 64.2868 9.53924 59.7056 9.53924H50.4306V21.7432H59.8934Z" fill="white"/>
<path d="M83.3251 36.5006L106.682 9.31394H84.0386V1.09033H118.698V8.18741L95.3414 35.3741H118.698V43.5602H83.2876V36.5006H83.3251Z" fill="white"/>
<path d="M123.729 22.3441C123.729 10.2528 133.267 0.376953 146.373 0.376953C159.478 0.376953 168.903 10.1401 168.903 22.3441C168.903 34.4354 159.365 44.3113 146.26 44.3113C133.117 44.3488 123.729 34.5481 123.729 22.3441ZM159.102 22.3441C159.102 15.0593 153.77 8.97606 146.222 8.97606C138.675 8.97606 133.455 14.9091 133.455 22.3441C133.455 29.6289 138.787 35.7122 146.335 35.7122C153.883 35.7122 159.102 29.7791 159.102 22.3441Z" fill="white"/>
<path d="M174.31 33.8726H184.148V43.5982H174.31V33.8726Z" fill="#4DBDC6"/>
</svg>
